<?xml version="1.0" standalone="no"?>
<!DOCTYPE svg PUBLIC "-//W3C//DTD SVG 20010904//EN"
 "http://www.w3.org/TR/2001/REC-SVG-20010904/DTD/svg10.dtd">
<svg version="1.0" xmlns="http://www.w3.org/2000/svg"
 width="383.000000pt" height="93.000000pt" viewBox="0 0 383.000000 93.000000"
 preserveAspectRatio="xMidYMid meet">

<g transform="translate(0.000000,93.000000) scale(0.100000,-0.100000)"
fill="#000000" stroke="none">
<path d="M286 800 c-109 -123 -121 -318 -25 -449 16 -23 29 -44 29 -49 0 -24
-140 -72 -212 -72 -36 0 -38 -2 -38 -31 l0 -32 66 7 c76 8 160 35 202 64 l28
20 69 -34 c73 -36 186 -61 228 -50 19 4 23 11 20 29 -4 22 -11 25 -73 30 -66
6 -122 23 -168 53 l-23 15 26 35 c67 88 91 213 60 319 -24 85 -101 195 -136
195 -4 0 -28 -23 -53 -50z m76 -47 c82 -94 88 -263 13 -368 l-33 -47 -25 34
c-37 49 -47 72 -58 133 -13 71 1 141 41 213 33 57 39 60 62 35z"/>
<path d="M2267 804 c-11 -12 -8 -59 5 -72 16 -16 53 -15 67 2 7 8 11 27 9 43
-3 24 -8 28 -38 31 -20 2 -39 0 -43 -4z"/>
<path d="M1102 783 c-12 -22 -200 -542 -204 -563 -2 -11 7 -15 36 -15 l40 0
25 77 25 78 126 0 125 0 29 -80 28 -80 39 0 c27 0 39 4 39 14 0 8 -47 142
-104 298 l-103 283 -46 3 c-36 2 -48 -1 -55 -15z m101 -211 c26 -76 47 -141
47 -145 0 -4 -45 -7 -100 -7 -55 0 -100 3 -100 8 0 13 95 282 100 282 3 0 26
-62 53 -138z"/>
<path d="M1667 640 c-16 -5 -44 -20 -63 -35 l-34 -26 0 31 c0 29 -2 31 -32 28
l-33 -3 -3 -217 -2 -218 40 0 40 0 0 154 0 154 40 36 c44 40 81 46 117 21 33
-23 43 -76 43 -227 l0 -138 35 0 35 0 0 148 c1 160 2 164 61 208 43 31 79 31
110 -2 23 -25 24 -32 27 -190 l3 -165 36 3 35 3 -1 169 c-2 216 -12 240 -104
267 -42 12 -100 -5 -142 -43 l-35 -30 -22 27 c-22 29 -75 56 -105 54 -10 0
-31 -5 -46 -9z"/>
<path d="M2635 640 c-11 -4 -31 -20 -45 -35 l-25 -27 -5 29 c-4 23 -11 29 -38
31 l-32 3 0 -220 0 -221 35 0 35 0 0 143 0 143 36 42 c33 39 39 42 85 42 l49
0 0 34 c0 26 -5 35 -22 40 -30 8 -48 7 -73 -4z"/>
<path d="M2909 640 c-43 -13 -76 -39 -93 -75 -19 -40 -20 -101 -2 -134 12 -21
11 -28 -5 -55 -24 -40 -24 -77 1 -108 19 -25 19 -26 0 -43 -11 -10 -25 -35
-31 -55 -23 -77 34 -129 150 -138 142 -10 231 44 231 140 0 33 -6 50 -22 65
-38 34 -59 40 -160 48 -106 7 -125 17 -114 61 5 20 11 24 24 18 9 -4 39 -9 66
-12 61 -5 119 20 146 63 21 35 28 129 10 140 -19 12 -10 24 23 27 24 2 33 8
35 26 2 12 -3 24 -10 26 -28 9 -224 14 -249 6z m113 -80 c27 -27 30 -36 25
-73 -7 -50 -36 -77 -82 -77 -48 0 -64 8 -81 42 -49 95 63 182 138 108z m40
-351 c42 -22 25 -89 -28 -109 -53 -21 -157 -7 -176 23 -15 23 -8 54 17 81 24
26 28 27 98 20 39 -3 80 -11 89 -15z"/>
<path d="M3381 635 c-88 -28 -134 -103 -134 -220 0 -160 79 -234 236 -222 95
7 127 22 127 59 0 33 0 32 -64 13 -122 -37 -203 -1 -220 98 l-7 37 140 0 c77
0 146 3 155 6 34 13 13 138 -32 187 -42 47 -130 65 -201 42z m114 -60 c34 -17
55 -50 55 -90 l0 -25 -115 0 -115 0 6 28 c11 42 35 73 69 88 40 17 60 17 100
-1z"/>
<path d="M2270 420 l0 -220 35 0 35 0 0 220 0 220 -35 0 -35 0 0 -220z"/>
</g>
</svg>
